<svg width="25" height="25" viewBox="0 0 25 25" fill="none" xmlns="http://www.w3.org/2000/svg">
<mask id="mask0_424_142" style="mask-type:luminance" maskUnits="userSpaceOnUse" x="0" y="0" width="25" height="25">
<path d="M24.2695 10.181H12.7556V14.9868H19.3716C19.2652 15.667 19.0264 16.336 18.6767 16.9461C18.276 17.6451 17.7807 18.1773 17.2729 18.5825C15.7521 19.7965 13.979 20.0447 12.7476 20.0447C9.63691 20.0447 6.97903 17.9505 5.95011 15.1048C5.90859 15.0015 5.88102 14.8948 5.84745 14.7894C5.62007 14.0651 5.49584 13.2981 5.49584 12.5008C5.49584 11.6711 5.63037 10.8768 5.87566 10.1267C6.84319 7.16814 9.56099 4.9584 12.7498 4.9584C13.3912 4.9584 14.0089 5.03793 14.5946 5.19655C15.9333 5.55907 16.8801 6.27304 17.4603 6.83779L20.9613 3.26641C18.8317 1.23247 16.0555 3.07518e-09 12.744 3.07518e-09C10.0967 -5.93534e-05 7.6525 0.859147 5.6496 2.31123C4.02531 3.48884 2.69316 5.0655 1.79412 6.89662C0.957891 8.59444 0.5 10.4759 0.5 12.4989C0.5 14.522 0.958591 16.423 1.79483 18.1052V18.1165C2.6781 19.9023 3.96975 21.4399 5.5396 22.6121C6.91104 23.6361 9.37017 25 12.744 25C14.6842 25 16.4038 24.6356 17.9203 23.9527C19.0142 23.4601 19.9835 22.8176 20.8611 21.9919C22.0206 20.9008 22.9288 19.5512 23.5486 17.9984C24.1684 16.4457 24.5 14.6898 24.5 12.7861C24.5 11.8995 24.4145 10.9992 24.2695 10.1809V10.181Z" fill="white"/>
</mask>
<g mask="url(#mask0_424_142)">
<g filter="url(#filter0_f_424_142)">
<path d="M0.322266 12.5838C0.334992 14.5749 0.879665 16.6293 1.70412 18.2877V18.2991C2.29983 19.5035 3.11399 20.4549 4.0413 21.3975L9.64205 19.2688C8.58242 18.7081 8.42073 18.3645 7.66115 17.7376C6.88493 16.9223 6.3064 15.9863 5.94612 14.8888H5.9316L5.94612 14.8774C5.70909 14.1526 5.68571 13.3833 5.67697 12.5838H0.322266Z" fill="url(#paint0_radial_424_142)"/>
</g>
<g filter="url(#filter1_f_424_142)">
<path d="M12.7544 -0.0909424C12.2009 1.93488 12.4125 3.90405 12.7544 5.0498C13.3937 5.0503 14.0095 5.12967 14.5934 5.2878C15.932 5.65032 16.8788 6.36432 17.459 6.92906L21.0496 3.26645C18.9225 1.23492 16.3627 -0.0877416 12.7544 -0.0909424Z" fill="url(#paint1_radial_424_142)"/>
</g>
<g filter="url(#filter2_f_424_142)">
<path d="M12.7427 -0.106934C10.0274 -0.106995 7.52047 0.77427 5.46616 2.26364C4.70339 2.81664 4.00341 3.45545 3.38013 4.16582C3.21684 5.76152 4.60245 7.72278 7.34637 7.70655C8.67771 6.09337 10.6467 5.04965 12.8382 5.04965C12.8402 5.04965 12.8422 5.04982 12.8442 5.04983L12.7547 -0.106569C12.7506 -0.106571 12.7467 -0.106934 12.7427 -0.106934Z" fill="url(#paint2_radial_424_142)"/>
</g>
<g filter="url(#filter3_f_424_142)">
<path d="M21.7056 13.1612L19.282 14.8956C19.1756 15.5757 18.9367 16.2448 18.587 16.8549C18.1863 17.5539 17.691 18.086 17.1833 18.4913C15.6656 19.7028 13.8971 19.9522 12.6661 19.9532C11.3936 22.2107 11.1705 23.3415 12.7556 25.1635C14.7169 25.162 16.4556 24.7932 17.9893 24.1026C19.098 23.6033 20.0802 22.9522 20.9696 22.1153C22.1447 21.0096 23.0651 19.6418 23.6933 18.0683C24.3214 16.4947 24.6573 14.7153 24.6573 12.7861L21.7056 13.1612Z" fill="url(#paint3_radial_424_142)"/>
</g>
<g filter="url(#filter4_f_424_142)">
<path d="M12.5762 9.99835V15.1694H24.2367C24.3393 14.4612 24.6784 13.5448 24.6784 12.7861C24.6784 11.8996 24.593 10.8167 24.4481 9.99835H12.5762Z" fill="#3086FF"/>
</g>
<g filter="url(#filter5_f_424_142)">
<path d="M3.43614 3.98328C2.71656 4.80339 2.10182 5.72134 1.6144 6.71409C0.778183 8.41191 0.320312 10.476 0.320312 12.499C0.320312 12.5275 0.322578 12.5554 0.32276 12.5838C0.693097 13.3235 5.43829 13.1818 5.67746 12.5838C5.67716 12.5559 5.67415 12.5287 5.67415 12.5007C5.67415 11.671 5.80872 11.0594 6.05401 10.3093C6.3566 9.38401 6.8304 8.53195 7.43626 7.79783C7.5736 7.61518 7.93993 7.22253 8.04681 6.98701C8.08753 6.8973 7.9729 6.84695 7.96649 6.81537C7.95932 6.78005 7.80563 6.80845 7.7712 6.78215C7.66188 6.69862 7.44539 6.655 7.31394 6.61623C7.03296 6.53336 6.56731 6.3506 6.30867 6.16115C5.49113 5.56232 4.21527 4.84702 3.43614 3.98328Z" fill="url(#paint4_radial_424_142)"/>
</g>
<g filter="url(#filter6_f_424_142)">
<path d="M6.3262 6.81891C8.22201 8.01515 8.76721 6.2151 10.0277 5.65182L7.83507 0.915527C7.02851 1.26865 6.26648 1.70736 5.55943 2.21997C4.50351 2.9855 3.57105 3.91968 2.80078 4.98278L6.3262 6.81891Z" fill="url(#paint5_radial_424_142)"/>
</g>
<g filter="url(#filter7_f_424_142)">
<path d="M7.09746 18.9029C4.55259 19.8599 4.15418 19.8942 3.91992 21.5371C4.36757 21.9921 4.84854 22.4131 5.35964 22.7947C6.73108 23.8187 9.36914 25.1826 12.743 25.1826C12.7469 25.1826 12.7507 25.1822 12.7547 25.1822V19.862C12.7521 19.862 12.7492 19.8621 12.7467 19.8621C11.4833 19.8621 10.4737 19.5165 9.43857 18.9154C9.18335 18.7672 8.72032 19.1652 8.48494 18.9872C8.16031 18.7419 7.37903 19.1987 7.09746 18.9029Z" fill="url(#paint6_radial_424_142)"/>
</g>
<g opacity="0.5" filter="url(#filter8_f_424_142)">
<path d="M11.2656 19.6944V25.0901C11.7377 25.1476 12.229 25.1826 12.7443 25.1826C13.261 25.1826 13.7608 25.155 14.2464 25.1042V19.7308C13.7022 19.8277 13.1896 19.8622 12.748 19.8622C12.2394 19.8622 11.7448 19.8005 11.2656 19.6944Z" fill="url(#paint7_linear_424_142)"/>
</g>
</g>
<defs>
<filter id="filter0_f_424_142" x="-0.147814" y="12.1137" width="10.2605" height="9.75388" filterUnits="userSpaceOnUse" color-interpolation-filters="sRGB">
<feFlood flood-opacity="0" result="BackgroundImageFix"/>
<feBlend mode="normal" in="SourceGraphic" in2="BackgroundImageFix" result="shape"/>
<feGaussianBlur stdDeviation="0.23504" result="effect1_foregroundBlur_424_142"/>
</filter>
<filter id="filter1_f_424_142" x="11.944" y="-0.561022" width="9.57492" height="7.96018" filterUnits="userSpaceOnUse" color-interpolation-filters="sRGB">
<feFlood flood-opacity="0" result="BackgroundImageFix"/>
<feBlend mode="normal" in="SourceGraphic" in2="BackgroundImageFix" result="shape"/>
<feGaussianBlur stdDeviation="0.23504" result="effect1_foregroundBlur_424_142"/>
</filter>
<filter id="filter2_f_424_142" x="2.89711" y="-0.577013" width="10.4167" height="8.75376" filterUnits="userSpaceOnUse" color-interpolation-filters="sRGB">
<feFlood flood-opacity="0" result="BackgroundImageFix"/>
<feBlend mode="normal" in="SourceGraphic" in2="BackgroundImageFix" result="shape"/>
<feGaussianBlur stdDeviation="0.23504" result="effect1_foregroundBlur_424_142"/>
</filter>
<filter id="filter3_f_424_142" x="11.1686" y="12.3161" width="13.9597" height="13.3175" filterUnits="userSpaceOnUse" color-interpolation-filters="sRGB">
<feFlood flood-opacity="0" result="BackgroundImageFix"/>
<feBlend mode="normal" in="SourceGraphic" in2="BackgroundImageFix" result="shape"/>
<feGaussianBlur stdDeviation="0.23504" result="effect1_foregroundBlur_424_142"/>
</filter>
<filter id="filter4_f_424_142" x="12.1061" y="9.52827" width="13.0417" height="6.11118" filterUnits="userSpaceOnUse" color-interpolation-filters="sRGB">
<feFlood flood-opacity="0" result="BackgroundImageFix"/>
<feBlend mode="normal" in="SourceGraphic" in2="BackgroundImageFix" result="shape"/>
<feGaussianBlur stdDeviation="0.23504" result="effect1_foregroundBlur_424_142"/>
</filter>
<filter id="filter5_f_424_142" x="-0.149767" y="3.5132" width="8.67453" height="10.0437" filterUnits="userSpaceOnUse" color-interpolation-filters="sRGB">
<feFlood flood-opacity="0" result="BackgroundImageFix"/>
<feBlend mode="normal" in="SourceGraphic" in2="BackgroundImageFix" result="shape"/>
<feGaussianBlur stdDeviation="0.23504" result="effect1_foregroundBlur_424_142"/>
</filter>
<filter id="filter6_f_424_142" x="-0.504069" y="-2.38932" width="13.8363" height="12.9151" filterUnits="userSpaceOnUse" color-interpolation-filters="sRGB">
<feFlood flood-opacity="0" result="BackgroundImageFix"/>
<feBlend mode="normal" in="SourceGraphic" in2="BackgroundImageFix" result="shape"/>
<feGaussianBlur stdDeviation="1.65243" result="effect1_foregroundBlur_424_142"/>
</filter>
<filter id="filter7_f_424_142" x="3.44984" y="18.4115" width="9.77414" height="7.24118" filterUnits="userSpaceOnUse" color-interpolation-filters="sRGB">
<feFlood flood-opacity="0" result="BackgroundImageFix"/>
<feBlend mode="normal" in="SourceGraphic" in2="BackgroundImageFix" result="shape"/>
<feGaussianBlur stdDeviation="0.23504" result="effect1_foregroundBlur_424_142"/>
</filter>
<filter id="filter8_f_424_142" x="10.7955" y="19.2243" width="3.92063" height="6.42838" filterUnits="userSpaceOnUse" color-interpolation-filters="sRGB">
<feFlood flood-opacity="0" result="BackgroundImageFix"/>
<feBlend mode="normal" in="SourceGraphic" in2="BackgroundImageFix" result="shape"/>
<feGaussianBlur stdDeviation="0.23504" result="effect1_foregroundBlur_424_142"/>
</filter>
<radialGradient id="paint0_radial_424_142" cx="0" cy="0" r="1" gradientUnits="userSpaceOnUse" gradientTransform="translate(9.52993 21.21) rotate(-92.2939) scale(12.4599 17.9466)">
<stop offset="0.141612" stop-color="#1ABD4D"/>
<stop offset="0.247515" stop-color="#6EC30D"/>
<stop offset="0.311547" stop-color="#8AC502"/>
<stop offset="0.366013" stop-color="#A2C600"/>
<stop offset="0.445673" stop-color="#C8C903"/>
<stop offset="0.540305" stop-color="#EBCB03"/>
<stop offset="0.615636" stop-color="#F7CD07"/>
<stop offset="0.699345" stop-color="#FDCD04"/>
<stop offset="0.771242" stop-color="#FDCE05"/>
<stop offset="0.860566" stop-color="#FFCE0A"/>
</radialGradient>
<radialGradient id="paint1_radial_424_142" cx="0" cy="0" r="1" gradientUnits="userSpaceOnUse" gradientTransform="translate(20.7137 6.66406) scale(8.46967 11.1555)">
<stop offset="0.408458" stop-color="#FB4E5A"/>
<stop offset="1" stop-color="#FF4540"/>
</radialGradient>
<radialGradient id="paint2_radial_424_142" cx="0" cy="0" r="1" gradientUnits="userSpaceOnUse" gradientTransform="translate(16.0886 -1.72173) rotate(150.539) scale(13.6289 18.6858)">
<stop offset="0.231273" stop-color="#FF4541"/>
<stop offset="0.311547" stop-color="#FF4540"/>
<stop offset="0.457516" stop-color="#FF4640"/>
<stop offset="0.540305" stop-color="#FF473F"/>
<stop offset="0.699346" stop-color="#FF5138"/>
<stop offset="0.771242" stop-color="#FF5B33"/>
<stop offset="0.860566" stop-color="#FF6C29"/>
<stop offset="1" stop-color="#FF8C18"/>
</radialGradient>
<radialGradient id="paint3_radial_424_142" cx="0" cy="0" r="1" gradientUnits="userSpaceOnUse" gradientTransform="translate(12.932 23.5454) rotate(-126.911) scale(35.8329 13.1568)">
<stop offset="0.131546" stop-color="#0CBA65"/>
<stop offset="0.209784" stop-color="#0BB86D"/>
<stop offset="0.297297" stop-color="#09B479"/>
<stop offset="0.396257" stop-color="#08AD93"/>
<stop offset="0.477124" stop-color="#0AA6A9"/>
<stop offset="0.568425" stop-color="#0D9CC6"/>
<stop offset="0.667385" stop-color="#1893DD"/>
<stop offset="0.768727" stop-color="#258BF1"/>
<stop offset="0.858506" stop-color="#3086FF"/>
</radialGradient>
<radialGradient id="paint4_radial_424_142" cx="0" cy="0" r="1" gradientUnits="userSpaceOnUse" gradientTransform="translate(11.7034 2.25425) rotate(96.4899) scale(13.474 18.2765)">
<stop offset="0.366013" stop-color="#FF4E3A"/>
<stop offset="0.457516" stop-color="#FF8A1B"/>
<stop offset="0.540305" stop-color="#FFA312"/>
<stop offset="0.615636" stop-color="#FFB60C"/>
<stop offset="0.771242" stop-color="#FFCD0A"/>
<stop offset="0.860566" stop-color="#FECF0A"/>
<stop offset="0.915033" stop-color="#FECF08"/>
<stop offset="1" stop-color="#FDCD01"/>
</radialGradient>
<radialGradient id="paint5_radial_424_142" cx="0" cy="0" r="1" gradientUnits="userSpaceOnUse" gradientTransform="translate(9.56171 2.11538) rotate(131.559) scale(6.6358 18.676)">
<stop offset="0.315904" stop-color="#FF4C3C"/>
<stop offset="0.603818" stop-color="#FF692C"/>
<stop offset="0.726837" stop-color="#FF7825"/>
<stop offset="0.884534" stop-color="#FF8D1B"/>
<stop offset="1" stop-color="#FF9F13"/>
</radialGradient>
<radialGradient id="paint6_radial_424_142" cx="0" cy="0" r="1" gradientUnits="userSpaceOnUse" gradientTransform="translate(16.0886 26.7214) rotate(-150.539) scale(13.6289 18.6858)">
<stop offset="0.231273" stop-color="#0FBC5F"/>
<stop offset="0.311547" stop-color="#0FBC5F"/>
<stop offset="0.366013" stop-color="#0FBC5E"/>
<stop offset="0.457516" stop-color="#0FBC5D"/>
<stop offset="0.540305" stop-color="#12BC58"/>
<stop offset="0.699346" stop-color="#28BF3C"/>
<stop offset="0.771242" stop-color="#38C02B"/>
<stop offset="0.860566" stop-color="#52C218"/>
<stop offset="0.915033" stop-color="#67C30F"/>
<stop offset="1" stop-color="#86C504"/>
</radialGradient>
<linearGradient id="paint7_linear_424_142" x1="11.2656" y1="22.4385" x2="14.2464" y2="22.4385" gradientUnits="userSpaceOnUse">
<stop stop-color="#0FBC5C"/>
<stop offset="1" stop-color="#0CBA65"/>
</linearGradient>
</defs>
</svg>
